<svg xmlns="http://www.w3.org/2000/svg" viewBox="0 16.450000762939453 257.6499938964844 44.5" data-asc="1.06" width="257.6499938964844" height="44.5"><defs/><g fill="#ff4c24"><g transform="translate(0, 0)"><path d="M21.70 60.90L16.15 53.50L16.15 52.45L21.50 52.50L24.50 54.20L29.25 60.95L21.70 60.90M16.70 53.60Q13.50 53.60 10.50 52.70Q7.50 51.80 5.13 49.73Q2.75 47.65 1.38 44.20Q0 40.75 0 35.60Q0 30.45 1.38 26.95Q2.75 23.45 5.13 21.35Q7.50 19.25 10.50 18.32Q13.50 17.40 16.70 17.40Q19.95 17.40 22.85 18.32Q25.75 19.25 28.03 21.35Q30.30 23.45 31.60 26.95Q32.90 30.45 32.90 35.60Q32.90 40.70 31.60 44.17Q30.30 47.65 28.05 49.73Q25.80 51.80 22.88 52.70Q19.95 53.60 16.70 53.60M16.45 47.30Q19.55 47.30 21.55 46Q23.55 44.70 24.53 42.05Q25.50 39.40 25.50 35.40Q25.50 31.35 24.50 28.77Q23.50 26.20 21.50 24.95Q19.50 23.70 16.45 23.70Q13.40 23.70 11.38 24.95Q9.35 26.20 8.38 28.77Q7.40 31.35 7.40 35.35Q7.40 39.35 8.38 42.02Q9.35 44.70 11.38 46Q13.40 47.30 16.45 47.30ZM50.15 53.60Q48.00 53.60 46.13 53.15Q44.25 52.70 42.85 51.58Q41.45 50.45 40.68 48.50Q39.90 46.55 39.90 43.55L39.90 31.50L39.40 27.50L47.10 27.50L46.60 31.50L46.60 43.50Q46.60 45.05 47.23 46.05Q47.85 47.05 49.18 47.55Q50.50 48.05 52.55 48.05Q54.95 48.05 56.40 47.48Q57.85 46.90 58.75 46.05L58.75 48.70L54.85 53.05Q53.80 53.30 52.65 53.45Q51.50 53.60 50.15 53.60M58.50 53L57.30 50.05L57.30 31.50L56.80 27.50L64.50 27.50L64 31.50L64 49.10L64.50 53L58.50 53ZM78.35 24.05Q76.75 24.05 75.65 23.02Q74.55 22 74.55 20.25Q74.55 18.50 75.65 17.48Q76.75 16.45 78.35 16.45Q79.95 16.45 81.05 17.48Q82.15 18.50 82.15 20.25Q82.15 22 81.05 23.02Q79.95 24.05 78.35 24.05M74.95 53L75.45 49L75.45 33.10L69.75 33.10L69.75 27.50L82.65 27.50L82.15 31.50L82.15 49L82.65 53L74.95 53ZM103.30 53.60Q100.75 53.60 98.30 52.98Q95.85 52.35 93.83 50.83Q91.80 49.30 90.60 46.73Q89.40 44.15 89.40 40.25Q89.40 36.50 90.50 33.95Q91.60 31.40 93.50 29.85Q95.40 28.30 97.90 27.60Q100.40 26.90 103.15 26.90Q105.20 26.90 106.73 27.20Q108.25 27.50 109.55 28.05L109.55 33.20L108.55 33.70Q107.55 33.20 106.28 32.85Q105.00 32.50 103.30 32.50Q101.05 32.50 99.45 33.33Q97.85 34.15 97.03 35.88Q96.20 37.60 96.20 40.35Q96.20 42.50 96.70 43.98Q97.20 45.45 98.13 46.33Q99.05 47.20 100.40 47.60Q101.75 48 103.45 48Q105.35 48 106.63 47.63Q107.90 47.25 108.90 46.75L109.90 47.25L109.90 52.35Q108.50 52.95 106.90 53.27Q105.30 53.60 103.30 53.60ZM133.20 53L131.20 49.40L125.35 41.40L119.05 41.40L119.05 35.95L125.10 35.95L130.25 29.90L131.75 27.50L140.25 27.50L130.90 38.60L141.70 53L133.20 53M115.00 53L115.50 49L115.50 20.60L115.00 16.60L122.70 16.60L122.20 20.60L122.20 49L122.70 53L115.00 53ZM158.40 53L158.90 49L158.90 22L158.40 18L180.70 18L180.70 24.40L177.70 23.90L165.70 23.90L165.70 32.25L179.15 32.25L179.15 38.55L176.15 38.15L165.70 38.15L165.70 47.10L177.70 47.10L180.70 46.60L180.70 53L158.40 53ZM203.30 53L202.55 49.35L202.55 37.70Q202.55 35.95 202.23 34.75Q201.90 33.55 200.58 32.92Q199.25 32.30 196.25 32.30Q194.55 32.30 193.03 32.58Q191.50 32.85 189.80 33.55L188.80 33.05L188.80 28.05Q191.00 27.30 193.05 27.10Q195.10 26.90 196.60 26.90Q201.65 26.90 204.38 28.07Q207.10 29.25 208.15 31.57Q209.20 33.90 209.20 37.40L209.20 49L209.60 53L203.30 53M196.30 53.60Q193.95 53.60 191.73 52.88Q189.50 52.15 188.05 50.33Q186.60 48.50 186.60 45.15Q186.60 42.45 187.58 40.83Q188.55 39.20 190.10 38.40Q191.65 37.60 193.50 37.33Q195.35 37.05 197.15 37.05Q198.00 37.05 199.00 37.08Q200.00 37.10 201.05 37.20L205.45 39.40L205.45 42.70Q204.05 42 202.45 41.73Q200.85 41.45 198.80 41.45Q195.80 41.45 194.55 42.17Q193.30 42.90 193.30 44.95Q193.30 47.10 194.53 47.83Q195.75 48.55 198.15 48.55Q201.50 48.55 203.18 47.55Q204.85 46.55 205.60 45.15L205.85 46.95L200.45 53.10Q199.40 53.35 198.35 53.48Q197.30 53.60 196.30 53.60ZM218.10 45.40L218.10 23.90L217.85 20.40L225.05 20.40L224.80 23.90L224.80 44.70Q224.80 46.50 225.60 47.17Q226.40 47.85 228.40 47.85Q229.55 47.85 230.38 47.65Q231.20 47.45 231.95 47.10L232.95 47.60L232.95 52.85Q231.85 53.15 230.43 53.38Q229.00 53.60 227.40 53.60Q224.70 53.60 222.60 52.83Q220.50 52.05 219.30 50.23Q218.10 48.40 218.10 45.40M213.80 33.45L213.80 27.50L216.10 27.50L221.40 29L226.80 27.50L231.95 27.50L231.95 33.45L229.45 33.20L216.30 33.20L213.80 33.45ZM256.20 28.10L256.20 33.30L255.20 33.80Q253.95 33.20 252.38 32.85Q250.80 32.50 248.90 32.50Q248.05 32.50 246.88 32.65Q245.70 32.80 244.83 33.30Q243.95 33.80 243.95 34.85Q243.95 35.90 244.95 36.45Q245.95 37 247.50 37.35Q249.05 37.70 250.80 38.13Q252.55 38.55 254.10 39.35Q255.65 40.15 256.65 41.63Q257.65 43.10 257.65 45.55Q257.65 48.50 256.18 50.27Q254.70 52.05 252.18 52.83Q249.65 53.60 246.55 53.60Q243.80 53.60 241.48 53.13Q239.15 52.65 237.55 52.15L237.55 46.70L238.55 46.20Q239.50 46.80 241.35 47.40Q243.20 48 246.30 48Q247.70 48 248.80 47.83Q249.90 47.65 250.55 47.15Q251.20 46.65 251.20 45.80Q251.20 44.70 250.23 44.17Q249.25 43.65 247.68 43.35Q246.10 43.05 244.38 42.65Q242.65 42.25 241.08 41.45Q239.50 40.65 238.53 39.08Q237.55 37.50 237.55 34.85Q237.55 32.60 238.33 31.05Q239.10 29.50 240.58 28.60Q242.05 27.70 244.08 27.30Q246.10 26.90 248.60 26.90Q251.00 26.90 252.88 27.22Q254.75 27.55 256.20 28.10Z"/></g></g></svg>